<?xml version="1.0" encoding="UTF-8"?>
<svg width="218px" height="37px" viewBox="0 0 218 37" version="1.1" xmlns="http://www.w3.org/2000/svg" xmlns:xlink="http://www.w3.org/1999/xlink">
    <!-- Generator: Sketch 52.1 (67048) - http://www.bohemiancoding.com/sketch -->
    <title>LOGO Copy 2</title>
    <desc>Created with Sketch.</desc>
    <g id="Page-1" stroke="none" stroke-width="1" fill="none" fill-rule="evenodd">
        <g id="傲世威首页设计稿确认" transform="translate(-80.000000, -101.000000)" fill="#000000">
            <g id="LOGO-Copy-2" transform="translate(80.000000, 101.000000)">
                <path d="M35.2450931,0.0224939699 L16.9985142,0.0224939699 C14.462086,-0.100769674 11.9265686,0.283481674 9.54078438,1.15269432 C6.27267238,2.40577105 3.57894269,4.81452187 1.97118863,7.92147666 C0.544944246,10.7579598 -0.11489479,13.9175612 0.057037985,17.0872773 C0.057037985,17.6710072 0.057037985,18.2423173 0.057037985,18.8136273 C-0.115120368,21.2626308 0.103042159,23.7234152 0.703374567,26.1040406 C2.62073761,32.5302181 8.52261111,36.9443173 15.2335181,36.9713517 L33.4552379,36.9713517 C36.0169246,37.1129938 38.5804743,36.7283407 40.987545,35.8411513 C44.2461074,34.5889978 46.9309803,32.1846759 48.5322817,29.0847888 C49.9392197,26.2388176 50.5776339,23.0749421 50.3842846,19.9065683 C50.3842846,19.3228385 50.3842846,18.7515284 50.3842846,18.1553788 C50.562175,15.7207121 50.3566599,13.273232 49.7752366,10.9022248 C47.8483793,4.48088467 41.9539859,0.067341636 35.2450931,0.0224939699 Z M41.6835998,22.7134395 C41.2474875,25.7157051 38.7932117,28.0186449 35.7671342,28.265083 C34.9840725,28.3271819 34.1512927,28.3520215 33.1320696,28.3520215 L30.8326029,28.3520215 C30.0371118,28.3520215 29.2540501,28.3520215 28.458559,28.3520215 L15.2335181,28.3520215 C13.4865251,28.3492189 11.8144795,27.6425882 10.5956517,26.3919922 C9.3768239,25.1413961 8.71421295,23.4525182 8.75772275,21.707437 C8.75772275,20.9001511 8.75772275,20.1052849 8.695575,19.2979989 C8.59268246,17.6125892 8.63426588,15.9214736 8.8198705,14.2431468 C8.97926324,12.8087046 9.66045641,11.4827475 10.7340211,10.5172115 C11.7793231,9.41655247 13.2074384,8.75862411 14.7239066,8.67908349 C15.4821091,8.67908349 16.3024594,8.592145 17.2843938,8.592145 C18.0674554,8.592145 18.8505171,8.592145 19.6211491,8.592145 C20.3917812,8.592145 21.2245611,8.592145 22.0324818,8.592145 L35.2450931,8.592145 C36.9997515,8.59151672 38.6801466,9.29968364 39.9043838,10.5557044 C41.128621,11.8117252 41.7927175,13.5089174 41.7457475,15.2615691 C41.7457475,16.068855 41.7457475,16.8637212 41.7457475,17.6585874 C41.8745755,19.3420622 41.8537782,21.0336351 41.6835998,22.7134395 Z" id="形状" fill-rule="nonzero"></path>
                <path d="M95.041176,3.77568714 C90.016212,11.8155676 84.9790908,19.8554481 79.9298124,27.8953286 L79.7474548,28.1809886 C74.641443,20.0334681 69.5313788,11.8942276 64.4172621,3.76326714 C62.9685981,1.442897 60.4612235,0.0380072268 57.7672895,0.0372669138 L52.2479339,0.0372669138 L59.7853799,11.9604676 L73.1582681,33.1738289 C74.5836478,35.5508695 77.116083,37 79.8447122,37 C82.5733414,37 85.1057766,35.5508695 86.5311563,33.1738289 C90.5835466,26.7402685 94.635937,20.3025681 98.6883274,13.8607277 L107.198347,0 L101.72762,6.91155916e-06 C99.0106116,-0.00362374948 96.4835375,1.42335651 95.041176,3.77568714 Z" id="路径"></path>
                <path d="M206.982442,13.9775017 L183.363489,13.9775017 C182.170756,13.7850221 181.29313,12.7448437 181.29313,11.5236736 C181.29313,10.3025035 182.170756,9.26232515 183.363489,9.06984553 L217.59991,9.06984553 L217.59991,0 L183.363489,0 C177.171567,0.122389818 172.23498,5.26877207 172.303626,11.5298858 C172.235124,17.7867895 177.175487,22.9260085 183.363489,23.0349228 L206.982442,23.0349228 C208.158295,23.243186 209.016094,24.2755958 209.016094,25.4825386 C209.016094,26.6894814 208.158295,27.7218912 206.982442,27.9301545 L172.057851,27.9301545 L172.057851,37 L206.982442,37 C213.124937,36.7959435 218,31.7024312 218,25.4887508 C218,19.2750704 213.124937,14.1815582 206.982442,13.9775017 Z" id="路径"></path>
                <path d="M161.149858,2.20702495e-15 L152.506926,2.20702495e-15 L152.335293,0.161517797 L152.335293,28.0792478 L151.47713,28.0792478 L131.616775,1.42881128 C131.190482,1.11219971 130.748569,0.817773911 130.292752,0.546675621 C129.725664,0.323806016 129.143982,0.141140883 128.551906,0 L116.378244,0 L116.206612,0.161517797 L116.206612,36.8509066 L116.378244,37 L124.959879,37 L125.119252,36.8509066 L125.119252,8.93317663 L125.989675,8.93317663 L145.911327,35.6705843 C145.911327,35.6705843 146.634636,36.3787777 146.977901,36.6148422 C147.387595,36.8250999 147.832519,36.9557377 148.289666,37 L161.088561,37 L161.247934,36.8509066 L161.247934,0.161517797 L161.149858,2.20702495e-15 Z" id="路径"></path>
            </g>
        </g>
    </g>
</svg>