<?xml version="1.0" encoding="UTF-8"?>
<svg width="43px" height="50px" viewBox="0 0 43 50" version="1.1" xmlns="http://www.w3.org/2000/svg" xmlns:xlink="http://www.w3.org/1999/xlink">
    <!-- Generator: Sketch 52.1 (67048) - http://www.bohemiancoding.com/sketch -->
    <title>16gl-3</title>
    <desc>Created with Sketch.</desc>
    <defs>
        <linearGradient x1="25.5350543%" y1="0%" x2="100%" y2="100%" id="linearGradient-1">
            <stop stop-color="#EF025D" offset="0%"></stop>
            <stop stop-color="#4133CE" offset="100%"></stop>
        </linearGradient>
    </defs>
    <g id="Page-1" stroke="none" stroke-width="1" fill="none" fill-rule="evenodd">
        <g id="16gl-3" fill="url(#linearGradient-1)" fill-rule="nonzero">
            <path d="M39.2753836,3.712932 C36.9316265,1.36364221 33.7424389,0.0467270927 30.4187256,0.0557413601 L1.7893368,0.0557413601 C0.801113374,0.0557413601 0,0.854341583 0,1.83946488 L0,16.1092531 C0,17.0943764 0.801113374,17.8929766 1.7893368,17.8929766 L21.4720416,17.8929766 C22.2186573,17.89305 22.8870064,18.3545408 23.1495449,19.0512821 L18.4312874,23.754738 L18.4262549,23.7597547 L18.4189857,23.7664437 C17.874229,24.3092797 17.739082,25.1387244 18.083485,25.8255295 L19.6827048,29.016165 L19.6827048,30.3790412 C19.6827048,31.3641645 18.8815914,32.1627648 17.893368,32.1627648 L1.7893368,32.1627648 C0.801113374,32.1627648 0,32.961365 0,33.9464883 L0,48.2162765 C0,49.2013998 0.801113374,50 1.7893368,50 L26.840052,50 C35.7340629,50 42.9440832,42.812598 42.9440832,33.9464883 C42.9444008,33.5413508 42.8063561,33.1481748 42.5526658,32.8316611 L36.5477633,25.3506132 L42.2283485,21.1036789 C42.678914,20.7668149 42.9440832,20.2381401 42.9440832,19.6767001 L42.9440832,12.541806 C42.9531259,9.22851946 41.6320665,6.04933663 39.2753836,3.712932 Z M30.4187256,3.62318841 C34.5095969,3.62318841 37.9674902,6.37402453 39.029909,10.1176143 C36.905786,8.23009549 34.1589305,7.18817593 31.313394,7.19063545 L3.5786736,7.19063545 L3.5786736,3.62318841 L30.4187256,3.62318841 Z M17.893368,35.7302118 C20.2229565,35.7273575 22.2857818,34.229536 23.0030429,32.0200669 L25.0160468,34.53233 C24.7130842,37.2419224 22.417652,39.2928858 19.6827048,39.2976589 L3.5786736,39.2976589 L3.5786736,35.7302118 L17.893368,35.7302118 Z M3.5786736,46.432553 L3.5786736,42.8651059 L19.6827048,42.8651059 C24.6156827,42.8651059 28.6293888,38.8639911 28.6293888,33.9464883 C28.6297064,33.5413508 28.4916617,33.1481748 28.2379714,32.8316611 L22.0804161,25.1599777 L26.3161118,20.9381271 C26.65166,20.6035552 26.8401286,20.1498022 26.840052,19.6767001 C26.8405396,19.0690226 26.7367136,18.4657425 26.5330689,17.8929766 L30.4187256,17.8929766 C31.1103296,17.8930576 31.7399619,18.2904436 32.0358388,18.9136009 L25.7664499,23.6008919 C25.7513524,23.6120401 25.7362549,23.622631 25.7217165,23.6343367 C25.3507649,23.929871 25.1128712,24.3602759 25.0604312,24.8307553 C25.0079912,25.3012348 25.1453062,25.7731988 25.4421326,26.1426979 L32.2080624,34.5724638 L32.2080624,34.8383501 C32.2080624,41.2313266 26.9904681,46.432553 20.5773732,46.432553 L3.5786736,46.432553 Z M31.2574772,45.62932 C31.2815215,45.6059086 31.3061248,45.5830546 31.3296099,45.5590858 C34.1922537,42.7224956 35.7972595,38.8619715 35.786736,34.8383501 L35.786736,33.9464883 C35.7870536,33.5413508 35.6490089,33.1481748 35.3953186,32.8316611 L29.3904161,25.3506132 L35.0710013,21.1036789 C35.5215668,20.7668149 35.786736,20.2381401 35.786736,19.6767001 C35.7833464,16.722731 33.3819908,14.3289085 30.4187256,14.3255295 L3.5786736,14.3255295 L3.5786736,10.7580825 L31.313394,10.7580825 C35.753186,10.7580825 39.3654096,14.3589744 39.3654096,18.7848384 L32.9237971,23.6008919 C32.5441478,23.8847356 32.2931593,24.3072958 32.2260462,24.7756141 C32.158933,25.2439323 32.2811928,25.7196465 32.5659298,26.0981048 C32.5771131,26.113155 32.5894148,26.1270903 32.6005982,26.1415831 L39.3508713,34.5540691 C39.1059558,39.6254181 35.8107802,43.9124861 31.2574772,45.62932 Z" id="形状"></path>
        </g>
    </g>
</svg>