<?xml version="1.0" encoding="UTF-8"?>
<svg width="29px" height="55px" viewBox="0 0 29 55" version="1.1" xmlns="http://www.w3.org/2000/svg" xmlns:xlink="http://www.w3.org/1999/xlink">
    <!-- Generator: Sketch 52.1 (67048) - http://www.bohemiancoding.com/sketch -->
    <title>16gl-1</title>
    <desc>Created with Sketch.</desc>
    <defs>
        <linearGradient x1="4.28873698%" y1="35.8649812%" x2="100%" y2="64.4773752%" id="linearGradient-1">
            <stop stop-color="#EF025D" offset="0%"></stop>
            <stop stop-color="#4133CE" offset="100%"></stop>
        </linearGradient>
    </defs>
    <g id="Page-1" stroke="none" stroke-width="1" fill="none" fill-rule="evenodd">
        <g id="16gl-1" fill="url(#linearGradient-1)" fill-rule="nonzero">
            <path d="M26.9285714,0 L10.3571429,0 C9.21312445,0 8.28571429,0.87944067 8.28571429,1.96428571 C8.28179033,5.21727831 5.50185713,7.85342186 2.07142857,7.85714286 C0.927410161,7.85714286 -5.68434189e-14,8.73658353 -5.68434189e-14,9.82142857 L-5.68434189e-14,17.6785714 C-5.68434189e-14,18.7634165 0.927410161,19.6428571 2.07142857,19.6428571 L8.28571429,19.6428571 L8.28571429,53.0357143 C8.28571429,54.1205593 9.21312445,55 10.3571429,55 L26.9285714,55 C28.0725898,55 29,54.1205593 29,53.0357143 L29,1.96428571 C29,0.87944067 28.0725898,0 26.9285714,0 Z M12.2207812,3.92857143 L24.8571429,3.92857143 L24.8571429,9.82633929 C23.0668025,8.54631199 20.8850436,7.85495147 18.6428571,7.85714286 L10.351317,7.85714286 C11.274787,6.69573697 11.9134478,5.35362799 12.2207812,3.92857143 Z M12.4285714,19.6428571 L16.5714286,19.6428571 L16.5714286,51.0714286 L12.4285714,51.0714286 L12.4285714,19.6428571 Z M24.8571429,51.0714286 L20.7142857,51.0714286 L20.7142857,18.6607143 C20.7125017,17.034148 19.322431,15.7159774 17.6071429,15.7142857 L4.14285714,15.7142857 L4.14285714,11.7857143 L18.6428571,11.7857143 C22.0732857,11.7894353 24.8532189,14.4255788 24.8571429,17.6785714 L24.8571429,51.0714286 Z" id="形状"></path>
        </g>
    </g>
</svg>