<?xml version="1.0" encoding="UTF-8"?>
<svg width="43px" height="50px" viewBox="0 0 43 50" version="1.1" xmlns="http://www.w3.org/2000/svg" xmlns:xlink="http://www.w3.org/1999/xlink">
    <!-- Generator: Sketch 52.1 (67048) - http://www.bohemiancoding.com/sketch -->
    <title>16gl-2</title>
    <desc>Created with Sketch.</desc>
    <defs>
        <linearGradient x1="50%" y1="100%" x2="50%" y2="0%" id="linearGradient-1">
            <stop stop-color="#EF025D" offset="0%"></stop>
            <stop stop-color="#4133CE" offset="100%"></stop>
        </linearGradient>
    </defs>
    <g id="Page-1" stroke="none" stroke-width="1" fill="none" fill-rule="evenodd">
        <g id="16gl-2" fill="url(#linearGradient-1)" fill-rule="nonzero">
            <path d="M43,16.0714286 L43,12.5 C43,5.59644063 37.3849046,-2.7628693e-14 30.4583333,-2.84217094e-14 L1.79166667,-2.84217094e-14 C0.80215649,-2.84217094e-14 -1.34151949e-14,0.799491518 -1.34151949e-14,1.78571429 L-1.34151949e-14,16.0714286 C-1.34151949e-14,17.0576513 0.80215649,17.8571429 1.79166667,17.8571429 L19.3964714,17.8571429 L1.72503906,38.4045759 C0.612241676,39.6994449 0.0004308825,41.3480825 -1.42108547e-14,43.0530134 L-1.42108547e-14,48.2142857 C-1.34151949e-14,49.2005085 0.80215649,50 1.79166667,50 L41.2083333,50 C42.1978435,50 43,49.2005085 43,48.2142857 L43,33.9285714 C43,32.9423487 42.1978435,32.1428571 41.2083333,32.1428571 L30.6027865,32.1428571 L42.6080729,17.1875 C42.8620936,16.8706331 43.000318,16.4770183 43,16.0714286 Z M30.4583333,3.57142857 C33.7382054,3.57379251 36.7550782,5.36078164 38.3248698,8.23102679 C37.0116252,7.51518436 35.5384832,7.1409251 34.0416667,7.14285714 L3.58333333,7.14285714 L3.58333333,3.57142857 L30.4583333,3.57142857 Z M3.58333333,46.4285714 L3.58333333,43.0530134 C3.58337977,42.2004684 3.88941666,41.3760628 4.44613281,40.7287946 L24.1158333,17.8571429 L28.3542448,17.8571429 L9.38945312,39.9090402 C8.93390075,40.4385459 8.82938092,41.1839488 9.12183026,41.817643 C9.4142796,42.4513372 10.0501596,42.8573128 10.75,42.8571429 L39.4166667,42.8571429 L39.4166667,46.4285714 L3.58333333,46.4285714 Z M39.4166667,39.2857143 L14.6457552,39.2857143 L17.7251823,35.7042411 C17.7887848,35.7109935 17.8527044,35.7143465 17.9166667,35.7142857 L39.4166667,35.7142857 L39.4166667,39.2857143 Z M20.7883724,32.1428571 L33.609987,17.233817 C34.0654734,16.7043879 34.1700344,15.9591156 33.8777268,15.3254677 C33.5854191,14.6918197 32.949739,14.2857623 32.25,14.2857143 L3.58333333,14.2857143 L3.58333333,10.7142857 L34.0416667,10.7142857 C36.7813197,10.7177077 39.0812454,12.7716832 39.3841927,15.4854911 L26.0138802,32.1428571 L20.7883724,32.1428571 Z" id="形状"></path>
        </g>
    </g>
</svg>